<svg xmlns="http://www.w3.org/2000/svg" width="256" height="256" viewBox="0 0 256 256"><path fill="#d8c2ab" d="M194.1 136.5a13.6 13.6 0 1 1-13.5-13.6 13.5 13.5 0 0 1 13.5 13.6zm40.3-4.6a.8.8 0 0 1-.2.4c-.9 1.6-23.2 37.5-53.6 37.5s-52.7-35.9-53.7-37.5a.8.8 0 0 0-.2-.4 25.3 25.3 0 0 1 .3-18.4c3.6-8.7 11.8-15.6 24.3-20.7 8.4-3.3 16.3-6.2 29.1-6.6h.3c12.8.4 20.8 3.3 29.1 6.6q18.9 7.7 24.3 20.7a24.8 24.8 0 0 1 .3 18.4zm-14.2 6.8l-8.3-4.5a9.1 9.1 0 0 1-4.3 1 9.8 9.8 0 1 1 0-19.6 9.7 9.7 0 0 1 9.7 8.9l9.7 5.2.7-1a18.1 18.1 0 0 0-.5-12.5c-2.8-6.7-9.6-12.2-20.1-16.5-7.7-3.1-15-5.6-26.5-6.1s-18.6 2.9-26.5 6.1q-15.9 6.5-20.1 16.5a17.8 17.8 0 0 0-.6 12.5l.7 1 9.7-5.2a9.8 9.8 0 1 1 9.8 10.7 8.8 8.8 0 0 1-4.3-1l-8.4 4.5c8.4 10 22.9 23.7 39.7 23.7s31.3-13.7 39.6-23.7zM61.9 8.5a13.6 13.6 0 1 0 27.1 0A13.3 13.3 0 0 0 86 0H64.9a13.3 13.3 0 0 0-3 8.5z"/><path fill="#d8c2ab" d="M122.8 0a2.5 2.5 0 0 0-.2.7l-.7 1-3.2-1.7H93a9.7 9.7 0 0 0 9.4 7.2 8.8 8.8 0 0 0 4.3-1l8.4 4.5c-8.4 10-22.9 23.7-39.7 23.7S44.1 20.7 35.8 10.7l8.3-4.5a9.1 9.1 0 0 0 4.3 1A9.7 9.7 0 0 0 57.9 0H32.1L29 1.7l-.7-1a2.5 2.5 0 0 0-.2-.7h-7.6a16.6 16.6 0 0 0 1.1 3.9.8.8 0 0 0 .2.4c.9 1.6 23.2 37.5 53.6 37.5s52.7-35.9 53.7-37.5a.8.8 0 0 1 .2-.4 16.6 16.6 0 0 0 1.1-3.9zM28.1 256a17.6 17.6 0 0 1 .7-11.8c2.8-6.7 9.6-12.2 20.1-16.5 8-3.2 15-5.7 26.5-6.1s18.9 3 26.5 6.1q15.9 6.5 20.1 16.5a18.5 18.5 0 0 1 .8 11.8h7.6a25.7 25.7 0 0 0-1.4-14.5c-3.6-8.7-11.8-15.6-24.3-20.7-8.4-3.3-16.3-6.2-29.1-6.6h-.3c-12.8.4-20.8 3.3-29.2 6.6-12.5 5.1-20.6 12-24.2 20.7a24.9 24.9 0 0 0-1.4 14.5z"/><path fill="#d8c2ab" d="M112.2 252.5a9.8 9.8 0 0 0-19.6.9 7.5 7.5 0 0 0 .4 2.6h25.8zm-63.8-9a9.8 9.8 0 0 0-9.7 9l-6.6 3.5h25.8a10.9 10.9 0 0 0 .4-2.6 9.9 9.9 0 0 0-9.9-9.9zm27 7.4a13.5 13.5 0 0 0-10.5 5.1H86a13.6 13.6 0 0 0-10.6-5.1z"/></svg>